<svg xmlns="http://www.w3.org/2000/svg" xml:space="preserve" id="Layer_1" width="64" height="64" fill="#331a00" stroke="#331a00" version="1.1" viewBox="-143 145 512 512"><path id="SVGRepo_iconCarrier" d="M329 145h-432c-22.1 0-40 17.9-40 40v432c0 22.1 17.9 40 40 40h432c22.1 0 40-17.9 40-40V185c0-22.1-17.9-40-40-40zM169.5 357.6l-2.9 38.3h-39.3v133H77.7v-133H51.2v-38.3h26.5v-25.7c0-11.3.3-28.8 8.5-39.7 8.7-11.5 20.6-19.3 41.1-19.3 33.4 0 47.4 4.8 47.4 4.8l-6.6 39.2s-11-3.2-21.3-3.2-19.5 3.7-19.5 14v29.9z"/></svg>