<svg width="167" height="86" viewBox="0 0 167 86" fill="none" xmlns="http://www.w3.org/2000/svg">
<g filter="url('#filter0_d_202_3')">
<path d="M13.6719 14.9844C13.6719 14.0365 13.6615 13.1667 13.6406 12.375C13.6302 11.5833 13.6146 10.8958 13.5938 10.3125C13.5833 9.71875 13.5677 9.25 13.5469 8.90625C13.5365 8.5625 13.5312 8.35938 13.5312 8.29688C13.3229 8.15104 13.0833 8.07292 12.8125 8.0625C12.5521 8.05208 12.2917 8.04688 12.0312 8.04688C11.6667 8.04688 11.2292 8.13542 10.7188 8.3125C10.2083 8.47917 9.71354 8.72396 9.23438 9.04688C8.75521 9.35938 8.34896 9.75 8.01562 10.2188C7.68229 10.6771 7.51562 11.1927 7.51562 11.7656C7.51562 12.099 7.55729 12.3646 7.64062 12.5625C7.73438 12.7604 7.83854 12.9115 7.95312 13.0156C8.07812 13.1094 8.19792 13.1719 8.3125 13.2031C8.4375 13.224 8.52604 13.2344 8.57812 13.2344C8.83854 13.2344 9.05208 13.1927 9.21875 13.1094C9.38542 13.0156 9.53646 12.9219 9.67188 12.8281C9.80729 12.724 9.93229 12.6302 10.0469 12.5469C10.1719 12.4531 10.3125 12.4062 10.4688 12.4062C10.5938 12.4062 10.724 12.4375 10.8594 12.5C11.0052 12.5521 11.1354 12.6406 11.25 12.7656C11.375 12.8906 11.4792 13.0573 11.5625 13.2656C11.6458 13.4635 11.6875 13.7083 11.6875 14C11.6875 14.4167 11.6042 14.776 11.4375 15.0781C11.2812 15.3802 11.0729 15.6354 10.8125 15.8438C10.5625 16.0417 10.2708 16.1927 9.9375 16.2969C9.61458 16.3906 9.29167 16.4375 8.96875 16.4375C8.46875 16.4375 8.01562 16.3542 7.60938 16.1875C7.21354 16.0104 6.875 15.7708 6.59375 15.4688C6.3125 15.1667 6.09896 14.8125 5.95312 14.4062C5.80729 14 5.73438 13.5677 5.73438 13.1094C5.73438 12.026 5.95833 11.0833 6.40625 10.2812C6.86458 9.46875 7.46875 8.79167 8.21875 8.25C8.97917 7.70833 9.84896 7.30729 10.8281 7.04688C11.8177 6.77604 12.8385 6.64062 13.8906 6.64062C14.8385 6.64062 15.6198 6.70312 16.2344 6.82812C16.849 6.95312 17.349 7.11979 17.7344 7.32812C18.1198 7.53646 18.4219 7.78646 18.6406 8.07812C18.8594 8.35938 19.0469 8.65625 19.2031 8.96875C19.8385 10.2604 20.4531 11.5312 21.0469 12.7812C21.651 14.0312 22.2292 15.25 22.7812 16.4375C23.3438 17.625 23.8854 18.7708 24.4062 19.875C24.9375 20.9688 25.4531 22.0052 25.9531 22.9844V20.75V15.9219C25.9531 15.0573 25.974 14.2135 26.0156 13.3906C26.0677 12.5573 26.1667 11.776 26.3125 11.0469C26.4688 10.3073 26.6979 9.63021 27 9.01562C27.3021 8.40104 27.7031 7.86979 28.2031 7.42188C28.7135 6.97396 29.3438 6.625 30.0938 6.375C30.8438 6.125 31.7448 6 32.7969 6C33.3281 6 33.8177 6.04167 34.2656 6.125C34.7135 6.19792 35.099 6.30729 35.4219 6.45312C35.7552 6.59896 36.0156 6.78125 36.2031 7C36.3906 7.20833 36.4844 7.44271 36.4844 7.70312C36.4844 7.86979 36.4583 8.04688 36.4062 8.23438C36.3646 8.41146 36.2969 8.57292 36.2031 8.71875C36.1094 8.86458 35.9896 8.98958 35.8438 9.09375C35.7083 9.1875 35.5469 9.23438 35.3594 9.23438C35.2031 9.23438 35.0573 9.125 34.9219 8.90625C34.7969 8.6875 34.6354 8.44792 34.4375 8.1875C34.25 7.91667 33.9948 7.67188 33.6719 7.45312C33.3594 7.23438 32.9323 7.125 32.3906 7.125C31.5469 7.125 30.8438 7.27604 30.2812 7.57812C29.7292 7.86979 29.2812 8.28646 28.9375 8.82812C28.5938 9.36979 28.3385 10.0312 28.1719 10.8125C28.0156 11.5833 27.9167 12.4427 27.875 13.3906C27.8542 14.0469 27.8333 14.6875 27.8125 15.3125C27.8021 15.9271 27.7917 16.5521 27.7812 17.1875C27.7812 17.8229 27.7812 18.4844 27.7812 19.1719C27.7812 19.849 27.7812 20.5781 27.7812 21.3594C27.7812 22.4635 27.7865 23.4531 27.7969 24.3281C27.8073 25.2031 27.8229 25.9219 27.8438 26.4844C28.3125 27.2865 28.776 28.0104 29.2344 28.6562C29.6927 29.2917 30.1406 29.8281 30.5781 30.2656C31.026 30.7135 31.474 31.0573 31.9219 31.2969C32.3698 31.5365 32.8229 31.6562 33.2812 31.6562C33.4271 31.6562 33.5677 31.6354 33.7031 31.5938C33.8385 31.5521 33.9583 31.5052 34.0625 31.4531C34.1771 31.401 34.2917 31.3333 34.4062 31.25L34.9062 31.8594C34.7604 31.9635 34.5521 32.0885 34.2812 32.2344C34.0208 32.3802 33.6979 32.5208 33.3125 32.6562C32.9375 32.7917 32.5052 32.9062 32.0156 33C31.526 33.0938 30.9896 33.1406 30.4062 33.1406C29.5625 33.1406 28.75 32.9323 27.9688 32.5156C27.1979 32.1094 26.4531 31.5469 25.7344 30.8281C25.0156 30.1094 24.3281 29.2708 23.6719 28.3125C23.0156 27.3438 22.3802 26.3073 21.7656 25.2031C21.1615 24.099 20.5781 22.9479 20.0156 21.75C19.4531 20.5521 18.9062 19.3698 18.375 18.2031C17.8542 17.026 17.349 15.8906 16.8594 14.7969C16.3802 13.6927 15.9115 12.6823 15.4531 11.7656C15.4531 12.3698 15.4583 12.9948 15.4688 13.6406C15.4792 14.2865 15.4844 14.9375 15.4844 15.5938V20.4375C15.4844 21.3021 15.4635 22.1458 15.4219 22.9688C15.3802 23.7917 15.2812 24.5729 15.125 25.3125C14.9688 26.0417 14.7396 26.7188 14.4375 27.3438C14.1458 27.9583 13.7448 28.4896 13.2344 28.9375C12.724 29.3854 12.0938 29.7344 11.3438 29.9844C10.5938 30.2344 9.69271 30.3594 8.64062 30.3594C8.10938 30.3594 7.61979 30.3177 7.17188 30.2344C6.72396 30.1615 6.33333 30.0521 6 29.9062C5.67708 29.7604 5.42708 29.5833 5.25 29.375C5.0625 29.1667 4.96875 28.9271 4.96875 28.6562C4.96875 28.4896 4.99479 28.3177 5.04688 28.1406C5.08854 27.9531 5.15625 27.7865 5.25 27.6406C5.34375 27.4948 5.45833 27.375 5.59375 27.2812C5.72917 27.1771 5.89062 27.125 6.07812 27.125C6.18229 27.125 6.27604 27.1771 6.35938 27.2812C6.45312 27.3854 6.54688 27.5156 6.64062 27.6719C6.74479 27.8281 6.85938 28 6.98438 28.1875C7.11979 28.3646 7.27604 28.5312 7.45312 28.6875C7.64062 28.8438 7.86458 28.974 8.125 29.0781C8.38542 29.1823 8.69792 29.2344 9.0625 29.2344C9.90625 29.2344 10.6042 29.0885 11.1562 28.7969C11.7188 28.4948 12.1719 28.0729 12.5156 27.5312C12.8594 26.9792 13.1094 26.3177 13.2656 25.5469C13.4219 24.776 13.5208 23.9115 13.5625 22.9531C13.5938 22.2969 13.6146 21.6615 13.625 21.0469C13.6354 20.4323 13.6458 19.8073 13.6562 19.1719C13.6667 18.5365 13.6719 17.875 13.6719 17.1875C13.6719 16.5 13.6719 15.7656 13.6719 14.9844ZM38 22.8281C38 23.1615 38.0469 23.526 38.1406 23.9219C38.2448 24.3073 38.3906 24.6979 38.5781 25.0938C38.7656 25.4896 38.9948 25.8698 39.2656 26.2344C39.5469 26.5885 39.8646 26.9062 40.2188 27.1875C40.5833 27.4688 40.9844 27.6927 41.4219 27.8594C41.8594 28.026 42.3385 28.1094 42.8594 28.1094C43.224 28.1094 43.5625 28.0677 43.875 27.9844C44.1875 27.901 44.4792 27.7865 44.75 27.6406C45.0208 27.4948 45.2812 27.3281 45.5312 27.1406C45.7812 26.9427 46.0312 26.7344 46.2812 26.5156L46.6719 26.8906C46.4323 27.2135 46.125 27.5677 45.75 27.9531C45.375 28.3385 44.9219 28.7031 44.3906 29.0469C43.8594 29.3802 43.2396 29.6615 42.5312 29.8906C41.8229 30.1094 41.0156 30.2188 40.1094 30.2188C39.2031 30.2188 38.3177 30.0573 37.4531 29.7344C36.599 29.401 35.8385 28.9062 35.1719 28.25C34.5052 27.5938 33.9688 26.776 33.5625 25.7969C33.1667 24.8177 32.9688 23.6719 32.9688 22.3594C32.9688 21.4115 33.0885 20.5417 33.3281 19.75C33.5677 18.9583 33.8906 18.2448 34.2969 17.6094C34.7135 16.974 35.1927 16.4167 35.7344 15.9375C36.2865 15.4583 36.8646 15.0625 37.4688 14.75C38.0729 14.4271 38.6875 14.1875 39.3125 14.0312C39.9479 13.8646 40.5573 13.7812 41.1406 13.7812C41.9115 13.7812 42.5833 13.8646 43.1562 14.0312C43.7292 14.1979 44.2031 14.4219 44.5781 14.7031C44.9635 14.9844 45.25 15.3125 45.4375 15.6875C45.625 16.0521 45.7188 16.4375 45.7188 16.8438C45.7188 17.3333 45.5781 17.776 45.2969 18.1719C45.0156 18.5573 44.6406 18.8958 44.1719 19.1875L38 22.8281ZM41.1406 19.6562C41.276 19.5729 41.3854 19.4948 41.4688 19.4219C41.5625 19.3385 41.6354 19.2448 41.6875 19.1406C41.7396 19.026 41.776 18.8906 41.7969 18.7344C41.8281 18.5677 41.8438 18.3646 41.8438 18.125C41.8438 17.8646 41.8125 17.5781 41.75 17.2656C41.6979 16.9427 41.6042 16.6406 41.4688 16.3594C41.3333 16.0781 41.1615 15.8438 40.9531 15.6562C40.7448 15.4688 40.4948 15.375 40.2031 15.375C39.8281 15.375 39.5052 15.4896 39.2344 15.7188C38.974 15.9375 38.7552 16.224 38.5781 16.5781C38.4115 16.9323 38.276 17.3385 38.1719 17.7969C38.0781 18.2448 38.0052 18.6979 37.9531 19.1562C37.901 19.6146 37.8698 20.0573 37.8594 20.4844C37.849 20.901 37.8438 21.2552 37.8438 21.5469L41.1406 19.6562ZM67.8125 18.7344C67.8125 18.0469 67.7656 17.4792 67.6719 17.0312C67.5781 16.5833 67.474 16.2135 67.3594 15.9219C67.2552 15.6198 67.1562 15.375 67.0625 15.1875C66.9688 14.9896 66.9219 14.8073 66.9219 14.6406C66.9219 14.4844 66.9844 14.3542 67.1094 14.25C67.2344 14.1458 67.3802 14.0573 67.5469 13.9844C67.724 13.9115 67.901 13.8594 68.0781 13.8281C68.2656 13.7969 68.4167 13.7812 68.5312 13.7812C68.8333 13.7812 69.0521 13.8229 69.1875 13.9062C69.3229 13.9896 69.4323 14.151 69.5156 14.3906C69.6094 14.6927 69.6719 15.0938 69.7031 15.5938C69.7448 16.0833 69.7656 16.6094 69.7656 17.1719C69.7656 17.974 69.7188 18.8542 69.625 19.8125C69.5312 20.7708 69.3802 21.7344 69.1719 22.7031C68.974 23.6719 68.7135 24.6094 68.3906 25.5156C68.0781 26.4219 67.6979 27.2292 67.25 27.9375C66.8021 28.6354 66.2865 29.1979 65.7031 29.625C65.1198 30.0417 64.4583 30.25 63.7188 30.25C63.1354 30.25 62.6094 30.1354 62.1406 29.9062C61.6823 29.6667 61.2708 29.3438 60.9062 28.9375C60.5417 28.5312 60.2188 28.0573 59.9375 27.5156C59.6667 26.9635 59.4271 26.375 59.2188 25.75C58.9792 26.3854 58.7031 26.9792 58.3906 27.5312C58.0781 28.0729 57.7292 28.5469 57.3438 28.9531C56.9688 29.3594 56.5521 29.6771 56.0938 29.9062C55.6354 30.1354 55.1406 30.25 54.6094 30.25C53.9531 30.25 53.3698 30.1094 52.8594 29.8281C52.3594 29.5365 51.9167 29.1458 51.5312 28.6562C51.1458 28.1562 50.8125 27.5781 50.5312 26.9219C50.25 26.2656 50.0052 25.5729 49.7969 24.8438C49.599 24.1146 49.4323 23.3646 49.2969 22.5938C49.1615 21.8229 49.0469 21.0781 48.9531 20.3594C48.8594 19.6406 48.7812 18.9688 48.7188 18.3438C48.6562 17.7188 48.5938 17.1771 48.5312 16.7188C48.4583 16.3021 48.349 15.9792 48.2031 15.75C48.0677 15.5208 47.8333 15.4062 47.5 15.4062C47.3229 15.4062 47.1719 15.4375 47.0469 15.5C46.9219 15.5625 46.7865 15.651 46.6406 15.7656L46.3125 15.375C46.5521 15.1771 46.8177 14.9844 47.1094 14.7969C47.4115 14.599 47.7344 14.4271 48.0781 14.2812C48.4219 14.1354 48.7917 14.0156 49.1875 13.9219C49.5833 13.8281 50 13.7812 50.4375 13.7812C51.0625 13.7812 51.5677 13.8906 51.9531 14.1094C52.3385 14.3177 52.6406 14.5833 52.8594 14.9062C53.0885 15.2188 53.25 15.5573 53.3438 15.9219C53.4375 16.2865 53.5052 16.6146 53.5469 16.9062C53.7344 18.4792 53.9167 19.8646 54.0938 21.0625C54.2812 22.2604 54.4792 23.2656 54.6875 24.0781C54.8958 24.8802 55.1198 25.4896 55.3594 25.9062C55.6094 26.3125 55.901 26.5156 56.2344 26.5156C56.4531 26.5156 56.6667 26.4219 56.875 26.2344C57.0833 26.0469 57.2812 25.7865 57.4688 25.4531C57.6562 25.1198 57.8333 24.7188 58 24.25C58.1667 23.7708 58.3125 23.2448 58.4375 22.6719C58.3333 22.099 58.2448 21.5312 58.1719 20.9688C58.099 20.4062 58.0312 19.8698 57.9688 19.3594C57.9167 18.8385 57.8646 18.3542 57.8125 17.9062C57.7604 17.4583 57.7031 17.0625 57.6406 16.7188C57.4844 15.7396 57.5729 15.0052 57.9062 14.5156C58.25 14.026 58.9323 13.7812 59.9531 13.7812C60.401 13.7812 60.776 13.8229 61.0781 13.9062C61.3906 13.9792 61.6458 14.125 61.8438 14.3438C62.0521 14.5521 62.2188 14.8438 62.3438 15.2188C62.4688 15.5833 62.5677 16.0521 62.6406 16.625C62.8385 18.1875 63.0312 19.5833 63.2188 20.8125C63.4062 22.0417 63.6042 23.0781 63.8125 23.9219C64.0208 24.7656 64.2448 25.4115 64.4844 25.8594C64.7344 26.2969 65.026 26.5156 65.3594 26.5156C65.7135 26.5156 66.0417 26.2969 66.3438 25.8594C66.6458 25.4219 66.9062 24.8438 67.125 24.125C67.3438 23.4062 67.5104 22.5781 67.625 21.6406C67.75 20.7031 67.8125 19.7344 67.8125 18.7344ZM83.1719 18.0312H86.0156V9.14062C86.0156 8.91146 85.9896 8.72917 85.9375 8.59375C85.8854 8.45833 85.8125 8.35417 85.7188 8.28125C85.625 8.19792 85.5104 8.14583 85.375 8.125C85.25 8.09375 85.1094 8.07812 84.9531 8.07812C84.724 8.07812 84.4375 8.11458 84.0938 8.1875C83.7604 8.26042 83.4062 8.36979 83.0312 8.51562C82.6562 8.66146 82.276 8.84375 81.8906 9.0625C81.5156 9.27083 81.1771 9.51042 80.875 9.78125C80.5833 10.0521 80.3438 10.3542 80.1562 10.6875C79.9688 11.0208 79.875 11.3802 79.875 11.7656C79.875 12.099 79.9167 12.3646 80 12.5625C80.0938 12.7604 80.1979 12.9115 80.3125 13.0156C80.4271 13.1094 80.5417 13.1719 80.6562 13.2031C80.7812 13.224 80.8698 13.2344 80.9219 13.2344C81.1823 13.2344 81.3958 13.1927 81.5625 13.1094C81.7292 13.0156 81.8802 12.9219 82.0156 12.8281C82.151 12.724 82.276 12.6302 82.3906 12.5469C82.5156 12.4531 82.6562 12.4062 82.8125 12.4062C82.9375 12.4062 83.0677 12.4375 83.2031 12.5C83.349 12.5521 83.4792 12.6406 83.5938 12.7656C83.7188 12.8906 83.8229 13.0573 83.9062 13.2656C83.9896 13.4635 84.0312 13.7083 84.0312 14C84.0312 14.4167 83.9479 14.776 83.7812 15.0781C83.625 15.3802 83.4167 15.6354 83.1562 15.8438C82.9062 16.0417 82.6146 16.1927 82.2812 16.2969C81.9583 16.3906 81.6354 16.4375 81.3125 16.4375C80.8125 16.4375 80.3594 16.3542 79.9531 16.1875C79.5573 16.0104 79.2188 15.7708 78.9375 15.4688C78.6562 15.1667 78.4427 14.8125 78.2969 14.4062C78.151 14 78.0781 13.5677 78.0781 13.1094C78.0781 12.3906 78.2083 11.7344 78.4688 11.1406C78.7292 10.5365 79.0833 9.99479 79.5312 9.51562C79.9896 9.03646 80.5208 8.61979 81.125 8.26562C81.7396 7.90104 82.401 7.59896 83.1094 7.35938C83.8177 7.11979 84.5573 6.94271 85.3281 6.82812C86.099 6.70312 86.8698 6.64062 87.6406 6.64062C88.4948 6.64062 89.1562 6.72396 89.625 6.89062C90.1042 7.04688 90.4531 7.23958 90.6719 7.46875C90.901 7.69792 91.0365 7.9375 91.0781 8.1875C91.1198 8.4375 91.1406 8.64583 91.1406 8.8125V18.0312H96.8906V10.5156C96.8906 8.79688 97.1146 7.33333 97.5625 6.125C98.0104 4.91667 98.5885 3.93229 99.2969 3.17188C100.005 2.40104 100.797 1.84375 101.672 1.5C102.547 1.14583 103.417 0.96875 104.281 0.96875C104.875 0.96875 105.438 1.01562 105.969 1.10938C106.51 1.19271 106.979 1.32292 107.375 1.5C107.781 1.67708 108.104 1.90104 108.344 2.17188C108.583 2.43229 108.703 2.73958 108.703 3.09375C108.703 3.25 108.677 3.40104 108.625 3.54688C108.583 3.68229 108.521 3.80729 108.438 3.92188C108.354 4.03646 108.255 4.13021 108.141 4.20312C108.036 4.26562 107.927 4.29688 107.812 4.29688C107.625 4.29688 107.458 4.23958 107.312 4.125C107.167 4.01042 107.026 3.86979 106.891 3.70312C106.766 3.52604 106.641 3.33854 106.516 3.14062C106.391 2.93229 106.25 2.74479 106.094 2.57812C105.938 2.40104 105.76 2.25521 105.562 2.14062C105.365 2.02604 105.13 1.96875 104.859 1.96875C104.224 1.96875 103.719 2.14583 103.344 2.5C102.969 2.84375 102.682 3.35417 102.484 4.03125C102.286 4.69792 102.156 5.53125 102.094 6.53125C102.042 7.53125 102.016 8.67708 102.016 9.96875V18.0312H105.156V19.4062H102.016V28.9062C102.016 29.2083 102.078 29.4531 102.203 29.6406C102.339 29.8177 102.542 29.9062 102.812 29.9062C103.104 29.9062 103.375 29.8542 103.625 29.75C103.875 29.6458 104.094 29.5469 104.281 29.4531L104.547 30.0312C104.318 30.1875 104.047 30.349 103.734 30.5156C103.432 30.6927 103.094 30.8542 102.719 31C102.354 31.1562 101.958 31.2812 101.531 31.375C101.115 31.4792 100.677 31.5312 100.219 31.5312C99.5104 31.5312 98.9375 31.4375 98.5 31.25C98.0625 31.0625 97.724 30.8125 97.4844 30.5C97.2448 30.1979 97.0833 29.8542 97 29.4688C96.9271 29.0833 96.8906 28.6927 96.8906 28.2969V19.4062H91.1406V27.1875C91.1406 28.6042 90.8802 29.8385 90.3594 30.8906C89.849 31.9427 89.1458 32.8177 88.25 33.5156C87.3542 34.224 86.2969 34.75 85.0781 35.0938C83.8698 35.4479 82.5729 35.625 81.1875 35.625C80.6562 35.625 80.1458 35.5781 79.6562 35.4844C79.1667 35.401 78.7344 35.2812 78.3594 35.125C77.9844 34.9688 77.6875 34.7812 77.4688 34.5625C77.2396 34.3542 77.125 34.125 77.125 33.875C77.125 33.6875 77.151 33.4948 77.2031 33.2969C77.2552 33.1094 77.3333 32.9375 77.4375 32.7812C77.5417 32.625 77.6719 32.4948 77.8281 32.3906C77.974 32.2865 78.1406 32.2344 78.3281 32.2344C78.4427 32.2344 78.5417 32.2917 78.625 32.4062C78.7188 32.5208 78.8125 32.6615 78.9062 32.8281C79 33.0052 79.1042 33.1927 79.2188 33.3906C79.3438 33.5885 79.5 33.7708 79.6875 33.9375C79.8854 34.1146 80.1198 34.2604 80.3906 34.375C80.6615 34.4896 81 34.5469 81.4062 34.5469C82.2083 34.5469 82.8958 34.401 83.4688 34.1094C84.0521 33.8177 84.5312 33.4062 84.9062 32.875C85.2812 32.3438 85.5573 31.7083 85.7344 30.9688C85.9219 30.2396 86.0156 29.4375 86.0156 28.5625V19.4062H83.1719V18.0312ZM106.781 22C106.781 20.6354 106.979 19.4427 107.375 18.4219C107.771 17.3906 108.297 16.5312 108.953 15.8438C109.62 15.1562 110.391 14.6406 111.266 14.2969C112.141 13.9531 113.057 13.7812 114.016 13.7812C114.974 13.7812 115.891 13.9427 116.766 14.2656C117.641 14.5781 118.406 15.0625 119.062 15.7188C119.729 16.375 120.26 17.2083 120.656 18.2188C121.052 19.2188 121.25 20.4062 121.25 21.7812C121.25 23.1458 121.052 24.3542 120.656 25.4062C120.26 26.4583 119.729 27.3438 119.062 28.0625C118.406 28.7812 117.641 29.3281 116.766 29.7031C115.891 30.0677 114.974 30.25 114.016 30.25C113.057 30.25 112.141 30.0781 111.266 29.7344C110.391 29.3802 109.62 28.8594 108.953 28.1719C108.297 27.4844 107.771 26.625 107.375 25.5938C106.979 24.5625 106.781 23.3646 106.781 22ZM116.391 21.8438C116.391 21.0104 116.359 20.2083 116.297 19.4375C116.245 18.6562 116.135 17.9635 115.969 17.3594C115.802 16.7552 115.562 16.276 115.25 15.9219C114.938 15.5573 114.526 15.375 114.016 15.375C113.505 15.375 113.094 15.5677 112.781 15.9531C112.469 16.3281 112.229 16.8281 112.062 17.4531C111.896 18.0677 111.786 18.7708 111.734 19.5625C111.682 20.3542 111.656 21.1667 111.656 22C111.656 22.8333 111.682 23.651 111.734 24.4531C111.786 25.2448 111.896 25.9531 112.062 26.5781C112.229 27.2031 112.469 27.7083 112.781 28.0938C113.094 28.4688 113.505 28.6562 114.016 28.6562C114.526 28.6562 114.938 28.4583 115.25 28.0625C115.562 27.6667 115.802 27.1458 115.969 26.5C116.135 25.8542 116.245 25.125 116.297 24.3125C116.359 23.5 116.391 22.6771 116.391 21.8438ZM137.531 28.625C137.531 28.7604 137.51 28.9219 137.469 29.1094C137.427 29.2969 137.323 29.474 137.156 29.6406C137 29.8073 136.76 29.9479 136.438 30.0625C136.115 30.1875 135.677 30.25 135.125 30.25C134.573 30.25 134.135 30.1823 133.812 30.0469C133.5 29.9219 133.26 29.7708 133.094 29.5938C132.938 29.4167 132.839 29.2344 132.797 29.0469C132.755 28.8594 132.734 28.7083 132.734 28.5938V17.5469C132.734 17.401 132.714 17.2552 132.672 17.1094C132.63 16.9531 132.568 16.8125 132.484 16.6875C132.401 16.5625 132.297 16.4635 132.172 16.3906C132.047 16.3073 131.901 16.2656 131.734 16.2656C131.453 16.2656 131.177 16.349 130.906 16.5156C130.635 16.6719 130.38 16.8542 130.141 17.0625C129.911 17.2708 129.708 17.4792 129.531 17.6875C129.365 17.8958 129.245 18.0521 129.172 18.1562V28.625C129.172 28.7604 129.151 28.9219 129.109 29.1094C129.068 29.2969 128.964 29.474 128.797 29.6406C128.641 29.8073 128.401 29.9479 128.078 30.0625C127.766 30.1875 127.333 30.25 126.781 30.25C126.229 30.25 125.792 30.1823 125.469 30.0469C125.156 29.9219 124.917 29.7708 124.75 29.5938C124.583 29.4167 124.479 29.2344 124.438 29.0469C124.396 28.8594 124.375 28.7083 124.375 28.5938V16.5312C124.375 16.2292 124.302 15.9688 124.156 15.75C124.021 15.5208 123.786 15.4062 123.453 15.4062C123.276 15.4062 123.125 15.4375 123 15.5C122.875 15.5625 122.74 15.651 122.594 15.7656L122.266 15.375C122.505 15.1771 122.771 14.9844 123.062 14.7969C123.365 14.599 123.688 14.4271 124.031 14.2812C124.375 14.1354 124.745 14.0156 125.141 13.9219C125.536 13.8281 125.953 13.7812 126.391 13.7812C127.068 13.7812 127.594 13.8958 127.969 14.125C128.344 14.3438 128.62 14.6094 128.797 14.9219C128.974 15.2344 129.078 15.5625 129.109 15.9062C129.151 16.2396 129.172 16.5208 129.172 16.75C129.661 16.1979 130.188 15.7031 130.75 15.2656C130.979 15.0781 131.229 14.8958 131.5 14.7188C131.781 14.5417 132.068 14.3854 132.359 14.25C132.651 14.1042 132.953 13.9896 133.266 13.9062C133.578 13.8229 133.891 13.7812 134.203 13.7812C134.807 13.7812 135.323 13.8906 135.75 14.1094C136.177 14.3281 136.521 14.5938 136.781 14.9062C137.042 15.2083 137.229 15.5312 137.344 15.875C137.469 16.2083 137.531 16.5 137.531 16.75C138.031 16.1979 138.557 15.7031 139.109 15.2656C139.339 15.0781 139.589 14.8958 139.859 14.7188C140.13 14.5417 140.411 14.3854 140.703 14.25C141.005 14.1042 141.307 13.9896 141.609 13.9062C141.922 13.8229 142.234 13.7812 142.547 13.7812C143.151 13.7812 143.667 13.8958 144.094 14.125C144.521 14.3438 144.865 14.6354 145.125 15C145.385 15.3646 145.573 15.776 145.688 16.2344C145.812 16.6927 145.875 17.151 145.875 17.6094V27.2812C145.875 27.375 145.88 27.4792 145.891 27.5938C145.901 27.6979 145.927 27.8021 145.969 27.9062C146.01 28 146.073 28.0781 146.156 28.1406C146.25 28.2031 146.37 28.2344 146.516 28.2344C146.714 28.2344 146.891 28.1667 147.047 28.0312C147.203 27.8854 147.349 27.7396 147.484 27.5938L147.859 27.9219C147.714 28.1406 147.521 28.3854 147.281 28.6562C147.042 28.9167 146.755 29.1667 146.422 29.4062C146.099 29.6458 145.719 29.8438 145.281 30C144.854 30.1667 144.37 30.25 143.828 30.25C143.37 30.25 142.969 30.1875 142.625 30.0625C142.292 29.9479 142.005 29.7917 141.766 29.5938C141.536 29.3854 141.365 29.1458 141.25 28.875C141.135 28.5938 141.078 28.2969 141.078 27.9844V17.5469C141.078 17.401 141.057 17.2552 141.016 17.1094C140.974 16.9531 140.911 16.8125 140.828 16.6875C140.755 16.5625 140.656 16.4635 140.531 16.3906C140.406 16.3073 140.26 16.2656 140.094 16.2656C139.812 16.2656 139.531 16.349 139.25 16.5156C138.979 16.6719 138.724 16.8542 138.484 17.0625C138.255 17.2708 138.057 17.4792 137.891 17.6875C137.724 17.8958 137.604 18.0521 137.531 18.1562V28.625ZM154.031 22.8281C154.031 23.1615 154.078 23.526 154.172 23.9219C154.276 24.3073 154.422 24.6979 154.609 25.0938C154.797 25.4896 155.026 25.8698 155.297 26.2344C155.578 26.5885 155.896 26.9062 156.25 27.1875C156.615 27.4688 157.016 27.6927 157.453 27.8594C157.891 28.026 158.37 28.1094 158.891 28.1094C159.255 28.1094 159.594 28.0677 159.906 27.9844C160.219 27.901 160.51 27.7865 160.781 27.6406C161.052 27.4948 161.312 27.3281 161.562 27.1406C161.812 26.9427 162.062 26.7344 162.312 26.5156L162.703 26.8906C162.464 27.2135 162.156 27.5677 161.781 27.9531C161.406 28.3385 160.953 28.7031 160.422 29.0469C159.891 29.3802 159.271 29.6615 158.562 29.8906C157.854 30.1094 157.047 30.2188 156.141 30.2188C155.234 30.2188 154.349 30.0573 153.484 29.7344C152.63 29.401 151.87 28.9062 151.203 28.25C150.536 27.5938 150 26.776 149.594 25.7969C149.198 24.8177 149 23.6719 149 22.3594C149 21.4115 149.12 20.5417 149.359 19.75C149.599 18.9583 149.922 18.2448 150.328 17.6094C150.745 16.974 151.224 16.4167 151.766 15.9375C152.318 15.4583 152.896 15.0625 153.5 14.75C154.104 14.4271 154.719 14.1875 155.344 14.0312C155.979 13.8646 156.589 13.7812 157.172 13.7812C157.943 13.7812 158.615 13.8646 159.188 14.0312C159.76 14.1979 160.234 14.4219 160.609 14.7031C160.995 14.9844 161.281 15.3125 161.469 15.6875C161.656 16.0521 161.75 16.4375 161.75 16.8438C161.75 17.3333 161.609 17.776 161.328 18.1719C161.047 18.5573 160.672 18.8958 160.203 19.1875L154.031 22.8281ZM157.172 19.6562C157.307 19.5729 157.417 19.4948 157.5 19.4219C157.594 19.3385 157.667 19.2448 157.719 19.1406C157.771 19.026 157.807 18.8906 157.828 18.7344C157.859 18.5677 157.875 18.3646 157.875 18.125C157.875 17.8646 157.844 17.5781 157.781 17.2656C157.729 16.9427 157.635 16.6406 157.5 16.3594C157.365 16.0781 157.193 15.8438 156.984 15.6562C156.776 15.4688 156.526 15.375 156.234 15.375C155.859 15.375 155.536 15.4896 155.266 15.7188C155.005 15.9375 154.786 16.224 154.609 16.5781C154.443 16.9323 154.307 17.3385 154.203 17.7969C154.109 18.2448 154.036 18.6979 153.984 19.1562C153.932 19.6146 153.901 20.0573 153.891 20.4844C153.88 20.901 153.875 21.2552 153.875 21.5469L157.172 19.6562ZM29 46.7656C28.7083 46.7656 28.4323 46.8281 28.1719 46.9531C27.9115 47.0781 27.6823 47.2812 27.4844 47.5625C27.2969 47.8333 27.1458 48.1823 27.0312 48.6094C26.9167 49.0365 26.8594 49.5521 26.8594 50.1562V54H30.2812V55.125H26.8594V67.4375C26.8594 68.8542 26.6719 70.1615 26.2969 71.3594C25.9323 72.5573 25.375 73.5885 24.625 74.4531C23.875 75.3281 22.9375 76.0104 21.8125 76.5C20.6875 76.9896 19.375 77.2344 17.875 77.2344C17.3438 77.2344 16.8333 77.1875 16.3438 77.0938C15.8542 77.0104 15.4219 76.8906 15.0469 76.7344C14.6719 76.5781 14.375 76.3906 14.1562 76.1719C13.9271 75.9635 13.8125 75.7292 13.8125 75.4688C13.8125 75.2812 13.8385 75.0885 13.8906 74.8906C13.9427 74.7031 14.0208 74.5312 14.125 74.375C14.2292 74.2188 14.3594 74.0885 14.5156 73.9844C14.6615 73.8906 14.8333 73.8438 15.0312 73.8438C15.1458 73.8438 15.25 73.901 15.3438 74.0156C15.4271 74.1302 15.5156 74.2708 15.6094 74.4375C15.7031 74.6042 15.8125 74.7865 15.9375 74.9844C16.0521 75.1927 16.2031 75.3802 16.3906 75.5469C16.5781 75.7135 16.8125 75.8542 17.0938 75.9688C17.3646 76.0833 17.6979 76.1406 18.0938 76.1406C18.625 76.1406 19.0938 76.0312 19.5 75.8125C19.9062 75.6042 20.2552 75.3125 20.5469 74.9375C20.8385 74.5625 21.0833 74.1198 21.2812 73.6094C21.4792 73.099 21.6354 72.5521 21.75 71.9688C21.8646 71.3854 21.9427 70.776 21.9844 70.1406C22.0365 69.5052 22.0625 68.8698 22.0625 68.2344V55.125H19.1875V54H22.0625V52.1719C22.0625 51.2552 22.1719 50.4583 22.3906 49.7812C22.6198 49.0938 22.9167 48.5104 23.2812 48.0312C23.6562 47.5521 24.0781 47.1615 24.5469 46.8594C25.0156 46.5573 25.4896 46.3177 25.9688 46.1406C26.4583 45.9635 26.9323 45.8438 27.3906 45.7812C27.849 45.7188 28.25 45.6875 28.5938 45.6875C29.3333 45.6875 29.9896 45.7448 30.5625 45.8594C31.1354 45.9635 31.6146 46.1094 32 46.2969C32.3854 46.474 32.6771 46.6823 32.875 46.9219C33.0729 47.1615 33.1719 47.4062 33.1719 47.6562C33.1719 47.8438 33.1406 48.0365 33.0781 48.2344C33.026 48.4219 32.9479 48.599 32.8438 48.7656C32.7396 48.9219 32.6094 49.0521 32.4531 49.1562C32.3073 49.25 32.1406 49.2969 31.9531 49.2969C31.8385 49.2969 31.7344 49.2344 31.6406 49.1094C31.5469 48.9844 31.4479 48.8281 31.3438 48.6406C31.2396 48.4531 31.125 48.25 31 48.0312C30.875 47.8125 30.7188 47.6094 30.5312 47.4219C30.3542 47.2344 30.1406 47.0781 29.8906 46.9531C29.6406 46.8281 29.3438 46.7656 29 46.7656ZM30.3906 62C30.3906 60.6354 30.5885 59.4427 30.9844 58.4219C31.3802 57.3906 31.9062 56.5312 32.5625 55.8438C33.2292 55.1562 34 54.6406 34.875 54.2969C35.75 53.9531 36.6667 53.7812 37.625 53.7812C38.5833 53.7812 39.5 53.9427 40.375 54.2656C41.25 54.5781 42.0156 55.0625 42.6719 55.7188C43.3385 56.375 43.8698 57.2083 44.2656 58.2188C44.6615 59.2188 44.8594 60.4062 44.8594 61.7812C44.8594 63.1458 44.6615 64.3542 44.2656 65.4062C43.8698 66.4583 43.3385 67.3438 42.6719 68.0625C42.0156 68.7812 41.25 69.3281 40.375 69.7031C39.5 70.0677 38.5833 70.25 37.625 70.25C36.6667 70.25 35.75 70.0781 34.875 69.7344C34 69.3802 33.2292 68.8594 32.5625 68.1719C31.9062 67.4844 31.3802 66.625 30.9844 65.5938C30.5885 64.5625 30.3906 63.3646 30.3906 62ZM40 61.8438C40 61.0104 39.9688 60.2083 39.9062 59.4375C39.8542 58.6562 39.7448 57.9635 39.5781 57.3594C39.4115 56.7552 39.1719 56.276 38.8594 55.9219C38.5469 55.5573 38.1354 55.375 37.625 55.375C37.1146 55.375 36.7031 55.5677 36.3906 55.9531C36.0781 56.3281 35.8385 56.8281 35.6719 57.4531C35.5052 58.0677 35.3958 58.7708 35.3438 59.5625C35.2917 60.3542 35.2656 61.1667 35.2656 62C35.2656 62.8333 35.2917 63.651 35.3438 64.4531C35.3958 65.2448 35.5052 65.9531 35.6719 66.5781C35.8385 67.2031 36.0781 67.7083 36.3906 68.0938C36.7031 68.4688 37.1146 68.6562 37.625 68.6562C38.1354 68.6562 38.5469 68.4583 38.8594 68.0625C39.1719 67.6667 39.4115 67.1458 39.5781 66.5C39.7448 65.8542 39.8542 65.125 39.9062 64.3125C39.9688 63.5 40 62.6771 40 61.8438ZM52.7812 57.0781C53.1771 56.474 53.599 55.9271 54.0469 55.4375C54.2344 55.2292 54.4375 55.026 54.6562 54.8281C54.875 54.6302 55.099 54.4531 55.3281 54.2969C55.5677 54.1406 55.8125 54.0156 56.0625 53.9219C56.3125 53.8281 56.5625 53.7812 56.8125 53.7812C57.3438 53.7812 57.7604 53.9427 58.0625 54.2656C58.3646 54.5781 58.5156 55.0208 58.5156 55.5938C58.5156 55.9479 58.4844 56.2917 58.4219 56.625C58.3698 56.9479 58.2604 57.3438 58.0938 57.8125H57.6562C57.5938 57.4896 57.4479 57.224 57.2188 57.0156C56.9896 56.7969 56.6562 56.6875 56.2188 56.6875C55.8958 56.6875 55.5781 56.75 55.2656 56.875C54.9531 56.9896 54.6458 57.1354 54.3438 57.3125C54.0521 57.4896 53.7708 57.6823 53.5 57.8906C53.2396 58.099 53 58.2969 52.7812 58.4844V68.625C52.7812 68.7604 52.7604 68.9219 52.7188 69.1094C52.6771 69.2969 52.5729 69.474 52.4062 69.6406C52.25 69.8073 52.0104 69.9479 51.6875 70.0625C51.375 70.1875 50.9427 70.25 50.3906 70.25C49.8385 70.25 49.401 70.1823 49.0781 70.0469C48.7656 69.9219 48.526 69.7708 48.3594 69.5938C48.1927 69.4167 48.0885 69.2344 48.0469 69.0469C48.0052 68.8594 47.9844 68.7083 47.9844 68.5938V56.5312C47.9844 56.2292 47.9115 55.9688 47.7656 55.75C47.6302 55.5208 47.3958 55.4062 47.0625 55.4062C46.8854 55.4062 46.7344 55.4375 46.6094 55.5C46.4844 55.5625 46.349 55.651 46.2031 55.7656L45.875 55.375C46.1146 55.1771 46.3802 54.9844 46.6719 54.7969C46.974 54.599 47.2969 54.4271 47.6406 54.2812C47.9844 54.1354 48.3542 54.0156 48.75 53.9219C49.1458 53.8281 49.5625 53.7812 50 53.7812C50.4479 53.7812 50.8281 53.8438 51.1406 53.9688C51.4635 54.0833 51.724 54.2396 51.9219 54.4375C52.1302 54.625 52.2917 54.8385 52.4062 55.0781C52.5208 55.3177 52.6042 55.5625 52.6562 55.8125C52.7188 56.0521 52.7552 56.2865 52.7656 56.5156C52.776 56.7344 52.7812 56.9219 52.7812 57.0781ZM73.3906 49.3906C73.3906 49.0573 73.2656 48.8125 73.0156 48.6562C72.776 48.4896 72.5104 48.4062 72.2188 48.4062C71.6354 48.4062 71.0677 48.4948 70.5156 48.6719C69.9635 48.8385 69.4688 49.0729 69.0312 49.375C68.5938 49.6667 68.2396 50.0208 67.9688 50.4375C67.7083 50.8438 67.5781 51.2865 67.5781 51.7656C67.5781 52.099 67.6198 52.3646 67.7031 52.5625C67.7969 52.7604 67.901 52.9115 68.0156 53.0156C68.1302 53.1094 68.2448 53.1719 68.3594 53.2031C68.4844 53.224 68.5729 53.2344 68.625 53.2344C68.8854 53.2344 69.099 53.1927 69.2656 53.1094C69.4323 53.0156 69.5833 52.9219 69.7188 52.8281C69.8542 52.724 69.9792 52.6302 70.0938 52.5469C70.2188 52.4531 70.3594 52.4062 70.5156 52.4062C70.6406 52.4062 70.7708 52.4375 70.9062 52.5C71.0521 52.5521 71.1823 52.6406 71.2969 52.7656C71.4219 52.8906 71.526 53.0573 71.6094 53.2656C71.6927 53.4635 71.7344 53.7083 71.7344 54C71.7344 54.4167 71.651 54.776 71.4844 55.0781C71.3281 55.3802 71.1198 55.6354 70.8594 55.8438C70.6094 56.0417 70.3177 56.1927 69.9844 56.2969C69.6615 56.3906 69.3385 56.4375 69.0156 56.4375C68.5156 56.4375 68.0625 56.3542 67.6562 56.1875C67.2604 56.0104 66.9219 55.7708 66.6406 55.4688C66.3594 55.1667 66.1458 54.8125 66 54.4062C65.8542 54 65.7812 53.5677 65.7812 53.1094C65.7812 51.8073 66.1094 50.7396 66.7656 49.9062C67.4219 49.0625 68.3125 48.401 69.4375 47.9219C70.5729 47.4323 71.8906 47.099 73.3906 46.9219C74.901 46.7344 76.5052 46.6406 78.2031 46.6406C80.1406 46.6406 81.8906 46.8385 83.4531 47.2344C85.026 47.6198 86.3698 48.25 87.4844 49.125C88.599 50 89.4583 51.1458 90.0625 52.5625C90.6667 53.9688 90.9688 55.6875 90.9688 57.7188C90.9688 59.75 90.6458 61.5521 90 63.125C89.3646 64.6979 88.4896 66.0208 87.375 67.0938C86.2708 68.1562 84.9688 68.9688 83.4688 69.5312C81.9792 70.0833 80.3802 70.3594 78.6719 70.3594C77.5365 70.3594 76.6198 70.3021 75.9219 70.1875C75.2344 70.0833 74.7031 69.901 74.3281 69.6406C73.9531 69.3698 73.7031 69.0156 73.5781 68.5781C73.4531 68.1302 73.3906 67.5677 73.3906 66.8906V49.3906ZM78.5469 67.0312C78.5469 67.625 78.6771 68.0521 78.9375 68.3125C79.2083 68.5625 79.6042 68.6875 80.125 68.6875C80.9062 68.6875 81.625 68.5156 82.2812 68.1719C82.9479 67.8281 83.5208 67.2396 84 66.4062C84.4792 65.5625 84.8542 64.4427 85.125 63.0469C85.3958 61.651 85.5312 59.8958 85.5312 57.7812C85.5312 56.3646 85.4427 55.1406 85.2656 54.1094C85.099 53.0677 84.875 52.1875 84.5938 51.4688C84.3125 50.7396 83.9896 50.151 83.625 49.7031C83.2708 49.2448 82.9062 48.8906 82.5312 48.6406C82.1562 48.3802 81.7865 48.2083 81.4219 48.125C81.0677 48.0312 80.75 47.9844 80.4688 47.9844C79.7917 47.9844 79.3021 48.1354 79 48.4375C78.6979 48.7396 78.5469 49.2812 78.5469 50.0625V67.0312ZM93.2031 62C93.2031 60.6354 93.401 59.4427 93.7969 58.4219C94.1927 57.3906 94.7188 56.5312 95.375 55.8438C96.0417 55.1562 96.8125 54.6406 97.6875 54.2969C98.5625 53.9531 99.4792 53.7812 100.438 53.7812C101.396 53.7812 102.312 53.9427 103.188 54.2656C104.062 54.5781 104.828 55.0625 105.484 55.7188C106.151 56.375 106.682 57.2083 107.078 58.2188C107.474 59.2188 107.672 60.4062 107.672 61.7812C107.672 63.1458 107.474 64.3542 107.078 65.4062C106.682 66.4583 106.151 67.3438 105.484 68.0625C104.828 68.7812 104.062 69.3281 103.188 69.7031C102.312 70.0677 101.396 70.25 100.438 70.25C99.4792 70.25 98.5625 70.0781 97.6875 69.7344C96.8125 69.3802 96.0417 68.8594 95.375 68.1719C94.7188 67.4844 94.1927 66.625 93.7969 65.5938C93.401 64.5625 93.2031 63.3646 93.2031 62ZM102.812 61.8438C102.812 61.0104 102.781 60.2083 102.719 59.4375C102.667 58.6562 102.557 57.9635 102.391 57.3594C102.224 56.7552 101.984 56.276 101.672 55.9219C101.359 55.5573 100.948 55.375 100.438 55.375C99.9271 55.375 99.5156 55.5677 99.2031 55.9531C98.8906 56.3281 98.651 56.8281 98.4844 57.4531C98.3177 58.0677 98.2083 58.7708 98.1562 59.5625C98.1042 60.3542 98.0781 61.1667 98.0781 62C98.0781 62.8333 98.1042 63.651 98.1562 64.4531C98.2083 65.2448 98.3177 65.9531 98.4844 66.5781C98.651 67.2031 98.8906 67.7083 99.2031 68.0938C99.5156 68.4688 99.9271 68.6562 100.438 68.6562C100.948 68.6562 101.359 68.4583 101.672 68.0625C101.984 67.6667 102.224 67.1458 102.391 66.5C102.557 65.8542 102.667 65.125 102.719 64.3125C102.781 63.5 102.812 62.6771 102.812 61.8438ZM109.938 60.1719C109.938 59.1094 110.12 58.1823 110.484 57.3906C110.859 56.5885 111.359 55.9219 111.984 55.3906C112.609 54.849 113.333 54.4479 114.156 54.1875C114.979 53.9167 115.844 53.7812 116.75 53.7812C117.656 53.7812 118.516 53.901 119.328 54.1406C120.141 54.3802 120.859 54.75 121.484 55.25C121.682 54.9479 121.844 54.6302 121.969 54.2969C122.094 53.9635 122.156 53.6302 122.156 53.2969C122.156 52.8594 122.036 52.5104 121.797 52.25C121.568 51.9896 121.271 51.8594 120.906 51.8594V51.4062C121.135 51.3333 121.339 51.2708 121.516 51.2188C121.693 51.1562 121.854 51.1094 122 51.0781C122.146 51.0469 122.292 51.026 122.438 51.0156C122.583 50.9948 122.745 50.9844 122.922 50.9844C123.411 50.9844 123.786 51.1354 124.047 51.4375C124.307 51.7396 124.438 52.1562 124.438 52.6875C124.438 53 124.365 53.3125 124.219 53.625C124.073 53.9271 123.891 54.2188 123.672 54.5C123.453 54.7812 123.208 55.0469 122.938 55.2969C122.677 55.5469 122.427 55.7656 122.188 55.9531C122.625 56.4531 122.964 57.0365 123.203 57.7031C123.443 58.3698 123.562 59.1302 123.562 59.9844C123.562 61.0573 123.375 62.0052 123 62.8281C122.635 63.651 122.141 64.3438 121.516 64.9062C120.891 65.4688 120.167 65.8958 119.344 66.1875C118.521 66.4688 117.656 66.6094 116.75 66.6094C116.219 66.6094 115.698 66.5625 115.188 66.4688C114.677 66.375 114.198 66.2396 113.75 66.0625C113.583 66.1875 113.438 66.3438 113.312 66.5312C113.198 66.7188 113.141 66.9271 113.141 67.1562C113.141 67.5417 113.307 67.8281 113.641 68.0156C113.974 68.2031 114.417 68.3385 114.969 68.4219C115.521 68.5052 116.146 68.5573 116.844 68.5781C117.542 68.599 118.255 68.6354 118.984 68.6875C119.724 68.7292 120.443 68.8177 121.141 68.9531C121.839 69.0781 122.464 69.2917 123.016 69.5938C123.568 69.8854 124.01 70.2865 124.344 70.7969C124.677 71.3073 124.844 71.9688 124.844 72.7812C124.844 73.375 124.719 73.9062 124.469 74.375C124.219 74.8542 123.88 75.2708 123.453 75.625C123.036 75.9896 122.547 76.2969 121.984 76.5469C121.432 76.8073 120.844 77.0156 120.219 77.1719C119.604 77.3385 118.974 77.4583 118.328 77.5312C117.693 77.6042 117.083 77.6406 116.5 77.6406C115.438 77.6406 114.479 77.5833 113.625 77.4688C112.781 77.3646 112.062 77.1979 111.469 76.9688C110.875 76.7396 110.417 76.4427 110.094 76.0781C109.771 75.7135 109.609 75.276 109.609 74.7656C109.609 74.401 109.693 74.0625 109.859 73.75C110.026 73.4479 110.245 73.1667 110.516 72.9062C110.797 72.6562 111.109 72.4271 111.453 72.2188C111.797 72.0208 112.146 71.8333 112.5 71.6562C111.979 71.4375 111.542 71.1042 111.188 70.6562C110.844 70.2188 110.672 69.6354 110.672 68.9062C110.672 68.5208 110.74 68.1667 110.875 67.8438C111.01 67.5104 111.182 67.2083 111.391 66.9375C111.609 66.6562 111.844 66.4062 112.094 66.1875C112.354 65.9583 112.604 65.7656 112.844 65.6094C112.417 65.3594 112.021 65.0573 111.656 64.7031C111.302 64.3385 110.995 63.9323 110.734 63.4844C110.484 63.026 110.286 62.5208 110.141 61.9688C110.005 61.4167 109.938 60.8177 109.938 60.1719ZM118.859 60.0469C118.859 59.4427 118.828 58.8542 118.766 58.2812C118.703 57.7083 118.594 57.1979 118.438 56.75C118.281 56.3021 118.068 55.9427 117.797 55.6719C117.526 55.3906 117.177 55.25 116.75 55.25C116.323 55.25 115.974 55.3958 115.703 55.6875C115.432 55.9688 115.219 56.3438 115.062 56.8125C114.906 57.2708 114.797 57.7969 114.734 58.3906C114.672 58.974 114.641 59.5677 114.641 60.1719C114.641 60.7865 114.672 61.3906 114.734 61.9844C114.797 62.5781 114.906 63.1094 115.062 63.5781C115.219 64.0469 115.432 64.4271 115.703 64.7188C115.974 65 116.323 65.1406 116.75 65.1406C117.177 65.1406 117.526 64.9896 117.797 64.6875C118.068 64.3854 118.281 63.9948 118.438 63.5156C118.594 63.026 118.703 62.4792 118.766 61.875C118.828 61.2708 118.859 60.6615 118.859 60.0469ZM121.234 74.0312C121.234 73.6979 121.104 73.4219 120.844 73.2031C120.583 72.9948 120.24 72.8229 119.812 72.6875C119.396 72.5625 118.917 72.4635 118.375 72.3906C117.844 72.3281 117.302 72.276 116.75 72.2344C116.198 72.2031 115.661 72.1719 115.141 72.1406C114.62 72.1094 114.167 72.0677 113.781 72.0156C113.562 72.1719 113.349 72.3385 113.141 72.5156C112.943 72.7031 112.766 72.8958 112.609 73.0938C112.464 73.3021 112.344 73.5156 112.25 73.7344C112.156 73.9635 112.109 74.1927 112.109 74.4219C112.109 74.8177 112.224 75.1458 112.453 75.4062C112.682 75.6771 112.99 75.8906 113.375 76.0469C113.771 76.2031 114.224 76.3125 114.734 76.375C115.255 76.4375 115.802 76.4688 116.375 76.4688C117.135 76.4688 117.818 76.401 118.422 76.2656C119.026 76.1406 119.536 75.9635 119.953 75.7344C120.37 75.5156 120.688 75.2604 120.906 74.9688C121.125 74.6771 121.234 74.3646 121.234 74.0312ZM126.25 60.1719C126.25 59.1094 126.432 58.1823 126.797 57.3906C127.172 56.5885 127.672 55.9219 128.297 55.3906C128.922 54.849 129.646 54.4479 130.469 54.1875C131.292 53.9167 132.156 53.7812 133.062 53.7812C133.969 53.7812 134.828 53.901 135.641 54.1406C136.453 54.3802 137.172 54.75 137.797 55.25C137.995 54.9479 138.156 54.6302 138.281 54.2969C138.406 53.9635 138.469 53.6302 138.469 53.2969C138.469 52.8594 138.349 52.5104 138.109 52.25C137.88 51.9896 137.583 51.8594 137.219 51.8594V51.4062C137.448 51.3333 137.651 51.2708 137.828 51.2188C138.005 51.1562 138.167 51.1094 138.312 51.0781C138.458 51.0469 138.604 51.026 138.75 51.0156C138.896 50.9948 139.057 50.9844 139.234 50.9844C139.724 50.9844 140.099 51.1354 140.359 51.4375C140.62 51.7396 140.75 52.1562 140.75 52.6875C140.75 53 140.677 53.3125 140.531 53.625C140.385 53.9271 140.203 54.2188 139.984 54.5C139.766 54.7812 139.521 55.0469 139.25 55.2969C138.99 55.5469 138.74 55.7656 138.5 55.9531C138.938 56.4531 139.276 57.0365 139.516 57.7031C139.755 58.3698 139.875 59.1302 139.875 59.9844C139.875 61.0573 139.688 62.0052 139.312 62.8281C138.948 63.651 138.453 64.3438 137.828 64.9062C137.203 65.4688 136.479 65.8958 135.656 66.1875C134.833 66.4688 133.969 66.6094 133.062 66.6094C132.531 66.6094 132.01 66.5625 131.5 66.4688C130.99 66.375 130.51 66.2396 130.062 66.0625C129.896 66.1875 129.75 66.3438 129.625 66.5312C129.51 66.7188 129.453 66.9271 129.453 67.1562C129.453 67.5417 129.62 67.8281 129.953 68.0156C130.286 68.2031 130.729 68.3385 131.281 68.4219C131.833 68.5052 132.458 68.5573 133.156 68.5781C133.854 68.599 134.568 68.6354 135.297 68.6875C136.036 68.7292 136.755 68.8177 137.453 68.9531C138.151 69.0781 138.776 69.2917 139.328 69.5938C139.88 69.8854 140.323 70.2865 140.656 70.7969C140.99 71.3073 141.156 71.9688 141.156 72.7812C141.156 73.375 141.031 73.9062 140.781 74.375C140.531 74.8542 140.193 75.2708 139.766 75.625C139.349 75.9896 138.859 76.2969 138.297 76.5469C137.745 76.8073 137.156 77.0156 136.531 77.1719C135.917 77.3385 135.286 77.4583 134.641 77.5312C134.005 77.6042 133.396 77.6406 132.812 77.6406C131.75 77.6406 130.792 77.5833 129.938 77.4688C129.094 77.3646 128.375 77.1979 127.781 76.9688C127.188 76.7396 126.729 76.4427 126.406 76.0781C126.083 75.7135 125.922 75.276 125.922 74.7656C125.922 74.401 126.005 74.0625 126.172 73.75C126.339 73.4479 126.557 73.1667 126.828 72.9062C127.109 72.6562 127.422 72.4271 127.766 72.2188C128.109 72.0208 128.458 71.8333 128.812 71.6562C128.292 71.4375 127.854 71.1042 127.5 70.6562C127.156 70.2188 126.984 69.6354 126.984 68.9062C126.984 68.5208 127.052 68.1667 127.188 67.8438C127.323 67.5104 127.495 67.2083 127.703 66.9375C127.922 66.6562 128.156 66.4062 128.406 66.1875C128.667 65.9583 128.917 65.7656 129.156 65.6094C128.729 65.3594 128.333 65.0573 127.969 64.7031C127.615 64.3385 127.307 63.9323 127.047 63.4844C126.797 63.026 126.599 62.5208 126.453 61.9688C126.318 61.4167 126.25 60.8177 126.25 60.1719ZM135.172 60.0469C135.172 59.4427 135.141 58.8542 135.078 58.2812C135.016 57.7083 134.906 57.1979 134.75 56.75C134.594 56.3021 134.38 55.9427 134.109 55.6719C133.839 55.3906 133.49 55.25 133.062 55.25C132.635 55.25 132.286 55.3958 132.016 55.6875C131.745 55.9688 131.531 56.3438 131.375 56.8125C131.219 57.2708 131.109 57.7969 131.047 58.3906C130.984 58.974 130.953 59.5677 130.953 60.1719C130.953 60.7865 130.984 61.3906 131.047 61.9844C131.109 62.5781 131.219 63.1094 131.375 63.5781C131.531 64.0469 131.745 64.4271 132.016 64.7188C132.286 65 132.635 65.1406 133.062 65.1406C133.49 65.1406 133.839 64.9896 134.109 64.6875C134.38 64.3854 134.594 63.9948 134.75 63.5156C134.906 63.026 135.016 62.4792 135.078 61.875C135.141 61.2708 135.172 60.6615 135.172 60.0469ZM137.547 74.0312C137.547 73.6979 137.417 73.4219 137.156 73.2031C136.896 72.9948 136.552 72.8229 136.125 72.6875C135.708 72.5625 135.229 72.4635 134.688 72.3906C134.156 72.3281 133.615 72.276 133.062 72.2344C132.51 72.2031 131.974 72.1719 131.453 72.1406C130.932 72.1094 130.479 72.0677 130.094 72.0156C129.875 72.1719 129.661 72.3385 129.453 72.5156C129.255 72.7031 129.078 72.8958 128.922 73.0938C128.776 73.3021 128.656 73.5156 128.562 73.7344C128.469 73.9635 128.422 74.1927 128.422 74.4219C128.422 74.8177 128.536 75.1458 128.766 75.4062C128.995 75.6771 129.302 75.8906 129.688 76.0469C130.083 76.2031 130.536 76.3125 131.047 76.375C131.568 76.4375 132.115 76.4688 132.688 76.4688C133.448 76.4688 134.13 76.401 134.734 76.2656C135.339 76.1406 135.849 75.9635 136.266 75.7344C136.682 75.5156 137 75.2604 137.219 74.9688C137.438 74.6771 137.547 74.3646 137.547 74.0312ZM155.688 56.2344C155.688 58.1406 155.5 59.9844 155.125 61.7656C154.76 63.5365 154.25 65.2031 153.594 66.7656C152.948 68.3177 152.177 69.7344 151.281 71.0156C150.385 72.3073 149.411 73.4115 148.359 74.3281C147.307 75.2448 146.193 75.9583 145.016 76.4688C143.849 76.9792 142.667 77.2344 141.469 77.2344C140.552 77.2344 139.844 77.0781 139.344 76.7656C138.844 76.4635 138.594 76.0521 138.594 75.5312C138.594 75.3333 138.625 75.1406 138.688 74.9531C138.75 74.7656 138.833 74.599 138.938 74.4531C139.042 74.3073 139.167 74.1875 139.312 74.0938C139.458 74.0104 139.615 73.9688 139.781 73.9688C139.979 73.9688 140.146 74.0677 140.281 74.2656C140.406 74.4635 140.542 74.6771 140.688 74.9062C140.833 75.1458 141.01 75.3646 141.219 75.5625C141.427 75.7604 141.714 75.8594 142.078 75.8594C142.547 75.8594 143.036 75.776 143.547 75.6094C144.057 75.4531 144.568 75.224 145.078 74.9219C145.599 74.6198 146.115 74.25 146.625 73.8125C147.146 73.3854 147.656 72.9062 148.156 72.375C147.865 71.3229 147.526 70.1771 147.141 68.9375C146.766 67.6875 146.365 66.4323 145.938 65.1719C145.521 63.9115 145.089 62.6979 144.641 61.5312C144.203 60.3542 143.771 59.3125 143.344 58.4062C142.927 57.5 142.521 56.776 142.125 56.2344C141.74 55.6823 141.396 55.4062 141.094 55.4062C140.896 55.4062 140.745 55.4375 140.641 55.5C140.526 55.5625 140.396 55.651 140.25 55.7656L139.938 55.375C140.146 55.1979 140.365 55.0156 140.594 54.8281C140.823 54.6406 141.094 54.4688 141.406 54.3125C141.719 54.1562 142.083 54.0312 142.5 53.9375C142.917 53.8333 143.417 53.7812 144 53.7812C144.635 53.7812 145.224 53.9271 145.766 54.2188C146.318 54.5 146.818 55.026 147.266 55.7969C147.589 56.3698 147.922 57.0573 148.266 57.8594C148.62 58.6615 148.974 59.5573 149.328 60.5469C149.682 61.5365 150.036 62.6094 150.391 63.7656C150.755 64.9115 151.12 66.1146 151.484 67.375C152.13 66.0208 152.651 64.5885 153.047 63.0781C153.443 61.5573 153.641 59.9948 153.641 58.3906C153.641 57.8177 153.604 57.3281 153.531 56.9219C153.458 56.5156 153.375 56.1719 153.281 55.8906C153.188 55.599 153.104 55.3542 153.031 55.1562C152.958 54.9479 152.922 54.7656 152.922 54.6094C152.922 54.4531 152.984 54.3229 153.109 54.2188C153.234 54.1042 153.385 54.0156 153.562 53.9531C153.74 53.8906 153.917 53.849 154.094 53.8281C154.281 53.7969 154.438 53.7812 154.562 53.7812C154.844 53.7812 155.057 53.8385 155.203 53.9531C155.359 54.0677 155.474 54.2344 155.547 54.4531C155.62 54.6615 155.661 54.9167 155.672 55.2188C155.682 55.5208 155.688 55.8594 155.688 56.2344Z" fill="#331A00"></path>
</g>
<defs>
<filter id="filter0_d_202_3" x="0.96875" y="0.96875" width="165.734" height="84.6719" filterUnits="userSpaceOnUse" color-interpolation-filters="sRGB">
<feFlood flood-opacity="0" result="BackgroundImageFix"></feFlood>
<feColorMatrix in="SourceAlpha" type="matrix" values="0 0 0 0 0 0 0 0 0 0 0 0 0 0 0 0 0 0 127 0" result="hardAlpha"></feColorMatrix>
<feOffset dy="4"></feOffset>
<feGaussianBlur stdDeviation="2"></feGaussianBlur>
<feComposite in2="hardAlpha" operator="out"></feComposite>
<feColorMatrix type="matrix" values="0 0 0 0 0 0 0 0 0 0 0 0 0 0 0 0 0 0 0.25 0"></feColorMatrix>
<feBlend mode="normal" in2="BackgroundImageFix" result="effect1_dropShadow_202_3"></feBlend>
<feBlend mode="normal" in="SourceGraphic" in2="effect1_dropShadow_202_3" result="shape"></feBlend>
</filter>
</defs>
</svg>
