<svg xmlns="http://www.w3.org/2000/svg" width="167" height="86" fill="none"><g filter="url('#filter0_d_202_3')"><path fill="#331A00" d="M13.672 14.984q0-1.42-.031-2.609-.015-1.188-.047-2.062a35 35 0 0 0-.047-1.407q-.016-.516-.016-.61a1.3 1.3 0 0 0-.719-.233q-.39-.016-.78-.016-.548 0-1.313.265a6 6 0 0 0-1.485.735q-.719.468-1.218 1.172-.5.687-.5 1.547 0 .5.125.797.14.296.312.453.188.14.36.187.186.031.265.031.39 0 .64-.125.25-.14.454-.28.202-.158.375-.282a.7.7 0 0 1 .422-.14q.188 0 .39.093a1 1 0 0 1 .391.266q.188.187.313.5.124.296.124.734 0 .625-.25 1.078a2.35 2.35 0 0 1-.624.766q-.375.297-.876.453-.483.14-.968.14-.75 0-1.36-.25a3.1 3.1 0 0 1-1.015-.718 3.1 3.1 0 0 1-.64-1.063 3.8 3.8 0 0 1-.22-1.297q0-1.625.672-2.828A6.3 6.3 0 0 1 8.22 8.25a8 8 0 0 1 2.61-1.203q1.484-.406 3.062-.406 1.421 0 2.343.187.922.188 1.5.5.579.312.907.75.328.422.562.89.953 1.938 1.844 3.813.906 1.875 1.734 3.656.844 1.782 1.625 3.438.798 1.64 1.547 3.11v-7.063q0-1.298.063-2.531.077-1.25.297-2.344.234-1.11.687-2.031a5.2 5.2 0 0 1 1.203-1.594q.765-.672 1.89-1.047T32.798 6q.796 0 1.469.125a4.6 4.6 0 0 1 1.156.328q.5.219.781.547.282.313.281.703 0 .25-.078.531-.062.266-.203.485-.14.218-.36.375a.83.83 0 0 1-.484.14q-.234 0-.437-.328a7 7 0 0 0-.484-.719 2.9 2.9 0 0 0-.766-.734q-.47-.328-1.281-.328-1.266 0-2.11.453-.828.438-1.343 1.25-.517.813-.766 1.985-.234 1.156-.297 2.578-.031.984-.062 1.922l-.032 1.874v4.172q0 1.656.016 2.97.015 1.311.047 2.155.702 1.203 1.39 2.172.688.954 1.344 1.61.672.672 1.344 1.03.671.36 1.36.36.218 0 .421-.062.203-.063.36-.14.171-.079.343-.204l.5.61q-.219.156-.625.374-.39.22-.968.422a8.6 8.6 0 0 1-2.907.485 5.1 5.1 0 0 1-2.437-.625q-1.156-.61-2.235-1.688a17.6 17.6 0 0 1-2.062-2.515 42 42 0 0 1-1.906-3.11 63 63 0 0 1-1.75-3.453q-.844-1.797-1.641-3.547a858 858 0 0 0-1.516-3.406 62 62 0 0 0-1.406-3.031q0 .906.016 1.875.015.969.015 1.953v4.844q0 1.296-.062 2.53-.062 1.236-.297 2.345a9 9 0 0 1-.687 2.03 4.9 4.9 0 0 1-1.204 1.595q-.765.67-1.89 1.046-1.125.375-2.703.375-.797 0-1.47-.125A5 5 0 0 1 6 29.906q-.485-.219-.75-.531a1.04 1.04 0 0 1-.281-.719q0-.25.078-.515a1.5 1.5 0 0 1 .203-.5 1.3 1.3 0 0 1 .344-.36.77.77 0 0 1 .484-.156q.156 0 .281.156.141.157.282.39l.343.517q.204.265.47.5.28.234.671.39.39.156.938.156 1.265 0 2.093-.437a3.6 3.6 0 0 0 1.36-1.266q.515-.828.75-1.984t.297-2.594q.046-.984.062-1.906l.031-1.875q.015-.953.016-1.985zM38 22.828q0 .5.14 1.094a7 7 0 0 0 1.126 2.312q.421.531.953.953.546.423 1.203.672.656.25 1.437.25a3.93 3.93 0 0 0 1.891-.468q.405-.22.781-.5.375-.297.75-.625l.39.375q-.358.484-.921 1.062-.562.578-1.36 1.094a8.3 8.3 0 0 1-1.859.844q-1.062.328-2.422.328a7.5 7.5 0 0 1-2.656-.485 6.7 6.7 0 0 1-2.281-1.484q-1-.984-1.61-2.453-.593-1.47-.593-3.438 0-1.422.36-2.609.359-1.188.968-2.14a8.3 8.3 0 0 1 1.437-1.672 8.9 8.9 0 0 1 1.735-1.188 8 8 0 0 1 1.843-.719 7.2 7.2 0 0 1 1.829-.25q1.155 0 2.015.25t1.422.672q.578.422.86.985.28.547.28 1.156 0 .734-.421 1.328a4 4 0 0 1-1.125 1.015zm3.14-3.172q.203-.124.329-.234a.9.9 0 0 0 .218-.281q.079-.172.11-.407.047-.25.047-.609 0-.39-.094-.86a3.3 3.3 0 0 0-.281-.906 2.2 2.2 0 0 0-.516-.703 1.08 1.08 0 0 0-.75-.281 1.45 1.45 0 0 0-.969.344 2.65 2.65 0 0 0-.656.86 6 6 0 0 0-.406 1.218q-.141.671-.219 1.36-.078.687-.094 1.327-.015.625-.015 1.063zm26.673-.922q0-1.03-.141-1.703a7 7 0 0 0-.313-1.11 6 6 0 0 0-.296-.733 1.3 1.3 0 0 1-.141-.547q0-.235.187-.391.188-.156.438-.266.266-.109.531-.156a3 3 0 0 1 .453-.047q.453 0 .656.125t.329.485q.14.453.187 1.203.063.734.063 1.578a27.3 27.3 0 0 1-.594 5.531 21 21 0 0 1-.781 2.813 11.6 11.6 0 0 1-1.141 2.422q-.671 1.046-1.547 1.687a3.33 3.33 0 0 1-1.984.625q-.876 0-1.578-.344a4.4 4.4 0 0 1-1.235-.968 6.8 6.8 0 0 1-.968-1.422 14 14 0 0 1-.72-1.766q-.359.953-.827 1.781a7.5 7.5 0 0 1-1.047 1.422 4.3 4.3 0 0 1-1.25.953q-.688.344-1.485.344-.984 0-1.75-.422a4.7 4.7 0 0 1-1.328-1.172 8 8 0 0 1-1-1.734 17 17 0 0 1-.734-2.078q-.297-1.095-.5-2.25-.203-1.157-.344-2.235a68 68 0 0 1-.234-2.015 46 46 0 0 0-.188-1.625q-.11-.626-.328-.969-.203-.344-.703-.344-.266 0-.453.094t-.406.266l-.328-.391q.36-.297.796-.578.453-.297.97-.516a7 7 0 0 1 1.108-.36q.594-.14 1.25-.14.938 0 1.516.328.579.313.906.797.344.469.485 1.016.14.547.203.984.281 2.36.547 4.157.28 1.796.593 3.015.314 1.203.672 1.828.375.61.875.61.33 0 .641-.282.312-.281.594-.78.28-.5.531-1.204.25-.72.438-1.578a34 34 0 0 1-.266-1.703q-.109-.845-.203-1.61a91 91 0 0 0-.157-1.453q-.078-.672-.171-1.187-.235-1.47.265-2.203.516-.735 2.047-.735.672 0 1.125.125.47.11.766.438.312.312.5.875.188.546.297 1.406.297 2.344.578 4.188t.593 3.109q.314 1.266.672 1.937.375.657.875.657.532 0 .985-.657.453-.656.781-1.734.328-1.079.5-2.484.188-1.407.188-2.907m15.359-.703h2.844v-8.89q0-.345-.079-.547a.7.7 0 0 0-.218-.313.66.66 0 0 0-.344-.156 1.7 1.7 0 0 0-.422-.047q-.344 0-.86.11a7 7 0 0 0-1.062.328 9 9 0 0 0-1.14.547 5.6 5.6 0 0 0-1.016.718q-.437.407-.719.906a2.16 2.16 0 0 0-.281 1.079q0 .5.125.797.14.296.313.453.172.14.343.187.188.031.266.031.39 0 .64-.125.25-.14.454-.28.203-.158.375-.282a.7.7 0 0 1 .421-.14q.189 0 .391.093a1 1 0 0 1 .39.266q.189.187.313.5.125.296.125.734 0 .625-.25 1.078a2.35 2.35 0 0 1-.625.766q-.375.297-.875.453-.484.14-.969.14-.75 0-1.359-.25a3.1 3.1 0 0 1-1.016-.718 3.1 3.1 0 0 1-.64-1.063 3.8 3.8 0 0 1-.219-1.297q0-1.078.39-1.968a5.6 5.6 0 0 1 1.063-1.625q.688-.72 1.594-1.25a10.4 10.4 0 0 1 1.984-.907 13 13 0 0 1 2.22-.53q1.154-.188 2.312-.188 1.28 0 1.984.25.72.234 1.047.578.344.343.406.718t.063.626v9.218h5.75v-7.515q0-2.58.671-4.391.672-1.812 1.735-2.953 1.062-1.156 2.375-1.672a6.9 6.9 0 0 1 2.609-.531q.891 0 1.688.14.812.126 1.406.391.609.266.969.672.359.39.359.922 0 .234-.078.453-.063.202-.187.375a1.1 1.1 0 0 1-.297.281.63.63 0 0 1-.329.094.8.8 0 0 1-.5-.172 2.7 2.7 0 0 1-.421-.422q-.188-.265-.375-.562a3.3 3.3 0 0 0-.422-.563 2.1 2.1 0 0 0-.532-.437 1.4 1.4 0 0 0-.703-.172q-.953 0-1.515.531-.563.516-.86 1.531-.297 1-.39 2.5-.078 1.5-.078 3.438v8.062h3.14v1.375h-3.14v9.5q0 .453.187.735.204.265.609.265.438 0 .813-.156t.656-.297l.266.578q-.344.235-.813.485-.453.265-1.015.484a6.6 6.6 0 0 1-1.188.375 5.4 5.4 0 0 1-1.312.156q-1.063 0-1.719-.281-.656-.28-1.016-.75A2.5 2.5 0 0 1 97 29.469a6.3 6.3 0 0 1-.11-1.172v-8.89h-5.75v7.78q0 2.125-.78 3.704a7.3 7.3 0 0 1-2.11 2.625q-1.344 1.062-3.172 1.578-1.812.531-3.89.531a8 8 0 0 1-1.532-.14 6 6 0 0 1-1.297-.36q-.562-.234-.89-.562-.344-.313-.344-.688 0-.28.078-.578.078-.282.234-.516t.391-.39a.84.84 0 0 1 .5-.157q.172 0 .297.172.141.172.281.422.14.266.313.563a2.56 2.56 0 0 0 1.172.984q.406.172 1.015.172 1.203 0 2.063-.438a3.8 3.8 0 0 0 1.437-1.234q.563-.797.828-1.906.282-1.095.282-2.407v-9.156h-2.844zM106.78 22q0-2.047.594-3.578.594-1.546 1.578-2.578a6.5 6.5 0 0 1 2.313-1.547 7.5 7.5 0 0 1 2.75-.516 7.9 7.9 0 0 1 2.75.485q1.312.468 2.296 1.453 1 .984 1.594 2.5.594 1.5.594 3.562 0 2.047-.594 3.625t-1.594 2.657a6.6 6.6 0 0 1-2.296 1.64 7.1 7.1 0 0 1-2.75.547 7.5 7.5 0 0 1-2.75-.516 6.7 6.7 0 0 1-2.313-1.562q-.984-1.032-1.578-2.578-.594-1.548-.594-3.594m9.61-.156q0-1.25-.094-2.407a10.5 10.5 0 0 0-.328-2.078q-.25-.906-.719-1.437-.469-.547-1.234-.547-.766 0-1.235.578-.468.563-.719 1.5a11 11 0 0 0-.328 2.11 37.917 37.917 0 0 0 0 4.89q.079 1.188.328 2.125.25.937.719 1.516.469.562 1.235.562t1.234-.593.719-1.563a12 12 0 0 0 .328-2.187q.094-1.22.094-2.47m21.14 6.781q0 .203-.062.484a1.1 1.1 0 0 1-.313.532q-.234.25-.718.422-.485.187-1.313.187t-1.313-.203q-.469-.187-.718-.453a1.24 1.24 0 0 1-.297-.547 2.2 2.2 0 0 1-.063-.453V17.547q0-.219-.062-.438a1.4 1.4 0 0 0-.188-.422.94.94 0 0 0-.312-.296.77.77 0 0 0-.438-.125q-.422 0-.828.25a5 5 0 0 0-.765.547q-.345.312-.61.625-.25.312-.359.468v10.469q0 .203-.063.484a1.1 1.1 0 0 1-.312.532q-.234.25-.719.422-.469.187-1.297.187t-1.312-.203q-.469-.187-.719-.453a1.17 1.17 0 0 1-.312-.547 2.2 2.2 0 0 1-.063-.453V16.53q0-.453-.219-.781-.203-.344-.703-.344-.266 0-.453.094t-.406.266l-.328-.391q.359-.297.796-.578a6 6 0 0 1 .969-.516 7 7 0 0 1 1.11-.36q.593-.14 1.25-.14 1.016 0 1.578.344.563.328.828.797.266.468.312.984.063.5.063.844a11.7 11.7 0 0 1 1.578-1.484q.344-.282.75-.547.422-.266.859-.469a4.8 4.8 0 0 1 .907-.344q.469-.125.937-.125.906 0 1.547.328.64.33 1.031.797.391.453.563.969.187.5.187.875.75-.828 1.578-1.484.345-.282.75-.547.406-.266.844-.469.453-.219.906-.344a3.6 3.6 0 0 1 .938-.125q.906 0 1.547.344.64.328 1.031.875t.563 1.234q.186.688.187 1.375v9.672q0 .14.016.313.015.156.078.312a.6.6 0 0 0 .187.235.64.64 0 0 0 .36.093.8.8 0 0 0 .531-.203q.234-.219.437-.437l.375.328a7 7 0 0 1-.578.734 5.6 5.6 0 0 1-.859.75q-.484.36-1.141.594a4 4 0 0 1-1.453.25q-.687 0-1.203-.187a2.7 2.7 0 0 1-.859-.47 2 2 0 0 1-.516-.718 2.3 2.3 0 0 1-.172-.89V17.546a1.6 1.6 0 0 0-.062-.438 1.4 1.4 0 0 0-.188-.422.8.8 0 0 0-.297-.296.77.77 0 0 0-.437-.125q-.423 0-.844.25a5 5 0 0 0-.766.547 5.4 5.4 0 0 0-.593.625q-.25.312-.36.468zm16.5-5.797q0 .5.141 1.094.156.578.437 1.172a7 7 0 0 0 .688 1.14q.422.531.953.953.548.423 1.203.672.657.25 1.438.25a3.9 3.9 0 0 0 1.89-.468 6 6 0 0 0 .781-.5q.375-.297.75-.625l.391.375q-.359.484-.922 1.062-.562.578-1.359 1.094a8.3 8.3 0 0 1-1.86.844q-1.062.328-2.421.328a7.5 7.5 0 0 1-2.657-.485 6.7 6.7 0 0 1-2.281-1.484q-1-.984-1.609-2.453-.594-1.47-.594-3.438 0-1.422.359-2.609.36-1.188.969-2.14a8.3 8.3 0 0 1 1.438-1.672 8.9 8.9 0 0 1 1.734-1.188 8 8 0 0 1 1.844-.719 7.2 7.2 0 0 1 1.828-.25q1.156 0 2.016.25.858.25 1.421.672.578.422.86.985a2.5 2.5 0 0 1 .281 1.156q0 .734-.422 1.328a4 4 0 0 1-1.125 1.015zm3.141-3.172q.203-.124.328-.234a.9.9 0 0 0 .219-.281 1.5 1.5 0 0 0 .109-.407q.047-.25.047-.609 0-.39-.094-.86a3.3 3.3 0 0 0-.281-.906 2.2 2.2 0 0 0-.516-.703 1.08 1.08 0 0 0-.75-.281q-.563 0-.968.344-.391.328-.657.86a6 6 0 0 0-.406 1.218q-.141.671-.219 1.36-.078.687-.093 1.327-.016.625-.016 1.063zM29 46.766a1.9 1.9 0 0 0-.828.187q-.39.187-.688.61-.28.406-.453 1.046-.172.64-.172 1.547V54h3.422v1.125H26.86v12.313q0 2.125-.562 3.921-.547 1.797-1.672 3.094-1.125 1.312-2.812 2.047-1.688.734-3.938.734a8 8 0 0 1-1.531-.14 6 6 0 0 1-1.297-.36q-.563-.234-.89-.562-.345-.313-.344-.703 0-.281.078-.578.078-.282.234-.516t.39-.39a.93.93 0 0 1 .516-.141q.172 0 .313.172.125.172.265.421.141.251.329.547.171.313.453.563.281.25.703.422.406.171 1 .172.797 0 1.406-.329a3.1 3.1 0 0 0 1.047-.874q.437-.563.734-1.329.297-.765.469-1.64a14 14 0 0 0 .234-1.828q.078-.953.078-1.907V55.125h-2.875V54h2.875v-1.828q0-1.376.329-2.39.344-1.032.89-1.75.563-.72 1.266-1.173a6.949 6.949 0 0 1 2.844-1.078q.687-.093 1.203-.093 1.11 0 1.968.171.86.157 1.438.438.578.265.875.625t.297.734q0 .282-.094.578-.078.282-.234.532a1.4 1.4 0 0 1-.39.39.9.9 0 0 1-.5.14q-.174 0-.313-.187a4 4 0 0 1-.297-.468q-.156-.282-.344-.61a2.9 2.9 0 0 0-.469-.61 2.3 2.3 0 0 0-.64-.468 2 2 0 0 0-.891-.187M30.39 62q0-2.047.594-3.578.594-1.546 1.578-2.578a6.5 6.5 0 0 1 2.313-1.547 7.5 7.5 0 0 1 2.75-.516 7.9 7.9 0 0 1 2.75.485 6.1 6.1 0 0 1 2.297 1.453q1 .985 1.594 2.5.593 1.5.593 3.562 0 2.047-.593 3.625-.594 1.579-1.594 2.656a6.6 6.6 0 0 1-2.297 1.641 7.1 7.1 0 0 1-2.75.547 7.5 7.5 0 0 1-2.75-.516 6.7 6.7 0 0 1-2.312-1.562q-.985-1.032-1.579-2.578-.594-1.547-.593-3.594m9.61-.156q0-1.25-.094-2.407a10.5 10.5 0 0 0-.328-2.078q-.25-.906-.719-1.437-.468-.547-1.234-.547-.765 0-1.234.578-.469.562-.72 1.5a11 11 0 0 0-.327 2.11 37.844 37.844 0 0 0 0 4.89q.078 1.188.328 2.125t.719 1.516q.468.562 1.234.562.765 0 1.234-.594.469-.593.72-1.562.249-.969.327-2.187.094-1.22.094-2.47m12.781-4.766q.594-.905 1.266-1.64.28-.313.61-.61a6 6 0 0 1 .671-.531q.36-.234.734-.375.375-.14.75-.14.797-.001 1.25.484.454.468.454 1.328 0 .531-.094 1.031a7 7 0 0 1-.328 1.188h-.438a1.4 1.4 0 0 0-.437-.797q-.345-.329-1-.328-.484 0-.953.187-.47.172-.922.438-.438.266-.844.578-.39.312-.719.593v10.141q0 .203-.062.484a1.1 1.1 0 0 1-.313.532q-.234.25-.718.421-.47.189-1.297.188-.828 0-1.313-.203-.468-.187-.719-.453a1.2 1.2 0 0 1-.312-.547 2.2 2.2 0 0 1-.063-.453V56.53q0-.453-.218-.781-.204-.345-.703-.344-.267 0-.454.094t-.406.266l-.328-.391q.36-.297.797-.578.453-.297.969-.516a7 7 0 0 1 1.109-.36q.594-.14 1.25-.14.672 0 1.14.188.485.171.782.468.313.282.484.641.172.36.25.734.095.36.11.704.015.328.015.562m20.61-7.687q0-.5-.375-.735a1.37 1.37 0 0 0-.797-.25q-.875 0-1.703.266a5.3 5.3 0 0 0-1.485.703 3.7 3.7 0 0 0-1.062 1.063q-.39.608-.39 1.328-.001.5.124.797.14.295.313.453.172.14.343.187.188.031.266.031.39 0 .64-.125a6 6 0 0 0 .454-.28q.203-.157.375-.282a.7.7 0 0 1 .422-.14q.188 0 .39.093a1 1 0 0 1 .39.266q.189.187.313.5.126.297.125.734 0 .625-.25 1.078a2.35 2.35 0 0 1-.625.766q-.374.297-.875.453-.483.14-.968.14-.75 0-1.36-.25a3.1 3.1 0 0 1-1.015-.718A3.1 3.1 0 0 1 66 54.406a3.8 3.8 0 0 1-.219-1.297q0-1.953.985-3.203.984-1.265 2.671-1.984 1.704-.735 3.954-1a39 39 0 0 1 4.812-.281q2.907 0 5.25.593 2.36.579 4.031 1.891 1.672 1.312 2.579 3.438.906 2.108.906 5.156 0 3.046-.969 5.406-.953 2.36-2.625 3.969a11.3 11.3 0 0 1-3.906 2.437q-2.235.828-4.797.828-1.703 0-2.75-.171-1.032-.157-1.594-.547a1.93 1.93 0 0 1-.75-1.063q-.187-.672-.187-1.687zm5.156 17.64q0 .891.39 1.281.406.376 1.188.376 1.172 0 2.156-.516 1-.515 1.719-1.766.72-1.265 1.125-3.36.406-2.093.406-5.265 0-2.124-.265-3.672-.25-1.562-.672-2.64-.421-1.094-.969-1.766-.531-.687-1.094-1.062a3.2 3.2 0 0 0-1.11-.516 3.8 3.8 0 0 0-.952-.14q-1.016 0-1.469.453t-.453 1.624zM93.203 62q0-2.047.594-3.578.594-1.546 1.578-2.578a6.5 6.5 0 0 1 2.313-1.547 7.5 7.5 0 0 1 2.75-.516q1.436 0 2.75.485 1.312.468 2.296 1.453 1 .985 1.594 2.5.594 1.5.594 3.562 0 2.047-.594 3.625-.594 1.579-1.594 2.656a6.6 6.6 0 0 1-2.296 1.641 7.1 7.1 0 0 1-2.75.547 7.5 7.5 0 0 1-2.75-.516 6.7 6.7 0 0 1-2.313-1.562q-.984-1.032-1.578-2.578-.594-1.547-.594-3.594m9.609-.156q0-1.25-.093-2.407a10.5 10.5 0 0 0-.328-2.078q-.25-.906-.719-1.437-.47-.547-1.234-.547-.765 0-1.235.578-.468.562-.719 1.5a11 11 0 0 0-.328 2.11 37.916 37.916 0 0 0 0 4.89q.079 1.188.328 2.125.25.937.72 1.516.468.562 1.234.562.765 0 1.234-.594.468-.593.719-1.562a12 12 0 0 0 .328-2.187q.093-1.22.093-2.47m7.126-1.672q0-1.595.546-2.781a5.8 5.8 0 0 1 1.5-2 6.1 6.1 0 0 1 2.172-1.203 8.3 8.3 0 0 1 2.594-.407q1.36 0 2.578.36a6.2 6.2 0 0 1 2.156 1.109q.297-.453.485-.953a2.8 2.8 0 0 0 .187-1q0-.657-.359-1.047a1.13 1.13 0 0 0-.891-.39v-.454q.344-.11.61-.187.265-.095.484-.14.219-.048.438-.063.218-.032.484-.032.734 0 1.125.453.39.455.391 1.25 0 .47-.219.938a5 5 0 0 1-.547.875 6.7 6.7 0 0 1-.734.797q-.391.375-.75.656a5.4 5.4 0 0 1 1.015 1.75q.36 1 .359 2.281 0 1.61-.562 2.844a6.05 6.05 0 0 1-1.484 2.078 6.4 6.4 0 0 1-2.172 1.281 8 8 0 0 1-2.594.422 8.6 8.6 0 0 1-1.562-.14 7.7 7.7 0 0 1-1.438-.406 1.9 1.9 0 0 0-.438.468 1.2 1.2 0 0 0-.171.625q0 .579.5.86.5.28 1.328.406.828.125 1.875.156t2.14.11q1.11.062 2.157.265a6.1 6.1 0 0 1 1.875.64q.828.439 1.328 1.204.5.766.5 1.984 0 .89-.375 1.594-.375.72-1.016 1.25a5.8 5.8 0 0 1-1.469.922q-.828.39-1.765.625a12.6 12.6 0 0 1-1.891.36q-.953.108-1.828.109-1.593 0-2.875-.172-1.266-.156-2.156-.5t-1.375-.89a1.9 1.9 0 0 1-.485-1.313q0-.548.25-1.016a3.6 3.6 0 0 1 .657-.844q.421-.375.937-.687.516-.297 1.047-.563a3.25 3.25 0 0 1-1.312-1q-.516-.655-.516-1.75 0-.578.203-1.062.203-.501.516-.906.328-.423.703-.75.39-.344.75-.579a6.2 6.2 0 0 1-1.188-.906 6.3 6.3 0 0 1-.922-1.219 6.7 6.7 0 0 1-.593-1.515 7.5 7.5 0 0 1-.203-1.797m8.921-.125q0-.906-.093-1.766a7 7 0 0 0-.328-1.531q-.235-.672-.641-1.078-.407-.422-1.047-.422t-1.047.438q-.406.421-.641 1.124a7.3 7.3 0 0 0-.328 1.579 17.443 17.443 0 0 0 0 3.594q.094.89.328 1.593.235.704.641 1.14.407.423 1.047.423t1.047-.454q.406-.453.641-1.171.234-.735.328-1.641.093-.907.093-1.828m2.375 13.984q0-.5-.39-.828-.39-.312-1.032-.516a9.4 9.4 0 0 0-1.437-.296 39 39 0 0 0-1.625-.157q-.829-.046-1.609-.093a19 19 0 0 1-1.36-.125 10 10 0 0 0-.64.5q-.297.28-.532.578a3.6 3.6 0 0 0-.359.64 1.8 1.8 0 0 0-.141.688q0 .594.344.984.344.407.922.64.594.235 1.359.329.781.094 1.641.094 1.14 0 2.047-.203.906-.188 1.531-.532.626-.328.953-.765.328-.437.328-.938m5.016-13.86q0-1.593.547-2.78a5.8 5.8 0 0 1 1.5-2 6.1 6.1 0 0 1 2.172-1.203 8.2 8.2 0 0 1 2.593-.407q1.36 0 2.579.36 1.218.36 2.156 1.109.297-.453.484-.953.188-.5.188-1 0-.657-.36-1.047a1.13 1.13 0 0 0-.89-.39v-.454q.344-.11.609-.187a4 4 0 0 1 .484-.14q.219-.048.438-.063.219-.032.484-.032.735 0 1.125.453.391.455.391 1.25 0 .47-.219.938a5 5 0 0 1-.547.875 6.5 6.5 0 0 1-.734.797q-.39.375-.75.656.656.75 1.016 1.75.359 1 .359 2.281 0 1.61-.563 2.844a6 6 0 0 1-1.484 2.078 6.4 6.4 0 0 1-2.172 1.281 8 8 0 0 1-2.594.422 8.6 8.6 0 0 1-1.562-.14q-.766-.141-1.438-.406a1.9 1.9 0 0 0-.437.468 1.17 1.17 0 0 0-.172.625q0 .579.5.86.5.28 1.328.406.828.125 1.875.156t2.141.11q1.109.062 2.156.265a6.1 6.1 0 0 1 1.875.64 3.5 3.5 0 0 1 1.328 1.204q.5.766.5 1.984 0 .89-.375 1.594-.375.72-1.015 1.25a5.8 5.8 0 0 1-1.469.922 9.6 9.6 0 0 1-1.766.625q-.922.249-1.89.36-.953.108-1.829.109-1.593 0-2.874-.172-1.266-.156-2.157-.5-.89-.344-1.375-.89a1.9 1.9 0 0 1-.484-1.313q0-.548.25-1.016.25-.453.656-.844.422-.375.938-.687.515-.297 1.046-.563a3.26 3.26 0 0 1-1.312-1q-.516-.655-.516-1.75 0-.578.204-1.062.203-.501.515-.906.328-.423.703-.75.391-.344.75-.579a6.2 6.2 0 0 1-1.187-.906 6.2 6.2 0 0 1-.922-1.219 6.8 6.8 0 0 1-.594-1.515 7.6 7.6 0 0 1-.203-1.797m8.922-.124q0-.906-.094-1.766a7 7 0 0 0-.328-1.531q-.234-.672-.641-1.078-.405-.422-1.047-.422-.64 0-1.046.438-.407.421-.641 1.124a7.2 7.2 0 0 0-.328 1.579 17.17 17.17 0 0 0 0 3.594 7.5 7.5 0 0 0 .328 1.593q.234.704.641 1.14.405.423 1.046.423.642 0 1.047-.454.407-.453.641-1.171.235-.735.328-1.641.094-.907.094-1.828m2.375 13.984q0-.5-.391-.828-.39-.312-1.031-.516a9.4 9.4 0 0 0-1.437-.296 39 39 0 0 0-1.626-.157q-.828-.046-1.609-.093a19 19 0 0 1-1.359-.125 10 10 0 0 0-.641.5q-.297.28-.531.578a3.6 3.6 0 0 0-.36.64q-.14.345-.14.688 0 .594.344.984.343.407.922.64.593.235 1.359.329.781.094 1.641.094 1.14 0 2.046-.203.907-.188 1.532-.532.624-.328.953-.765t.328-.938m18.141-17.797q0 2.86-.563 5.532a27 27 0 0 1-1.531 5 22.4 22.4 0 0 1-2.313 4.25q-1.344 1.936-2.922 3.312t-3.343 2.14q-1.75.766-3.547.766-1.375 0-2.125-.468-.75-.454-.75-1.235 0-.296.094-.578.093-.28.25-.5.156-.219.374-.36a.93.93 0 0 1 .469-.124q.297 0 .5.297l.407.64q.218.36.531.656t.859.297q.703 0 1.469-.25a7 7 0 0 0 1.531-.687 10.4 10.4 0 0 0 1.547-1.11 16 16 0 0 0 1.531-1.437q-.437-1.578-1.015-3.437-.562-1.876-1.203-3.766a82 82 0 0 0-1.297-3.64 41 41 0 0 0-1.297-3.126q-.625-1.359-1.219-2.172-.578-.828-1.031-.828-.297 0-.453.094a3 3 0 0 0-.391.266l-.312-.391q.312-.266.656-.547t.812-.516a4.8 4.8 0 0 1 1.094-.374q.625-.157 1.5-.157.953 0 1.766.438.828.422 1.5 1.578.484.86 1 2.062.531 1.203 1.062 2.688.53 1.484 1.063 3.219a143 143 0 0 1 1.093 3.609 24 24 0 0 0 1.563-4.297q.594-2.28.594-4.687 0-.86-.11-1.47a7.5 7.5 0 0 0-.25-1.03 18 18 0 0 0-.25-.735 1.7 1.7 0 0 1-.109-.547q0-.234.187-.39.188-.172.453-.266a2.5 2.5 0 0 1 .532-.125 3 3 0 0 1 .468-.047q.423 0 .641.172a1 1 0 0 1 .344.5q.109.312.125.766.015.453.016 1.015"/></g><defs><filter id="filter0_d_202_3" width="165.734" height="84.672" x=".969" y=".969" color-interpolation-filters="sRGB" filterUnits="userSpaceOnUse"><feFlood flood-opacity="0" result="BackgroundImageFix"/><feColorMatrix in="SourceAlpha" result="hardAlpha" values="0 0 0 0 0 0 0 0 0 0 0 0 0 0 0 0 0 0 127 0"/><feOffset dy="4"/><feGaussianBlur stdDeviation="2"/><feComposite in2="hardAlpha" operator="out"/><feColorMatrix values="0 0 0 0 0 0 0 0 0 0 0 0 0 0 0 0 0 0 0.25 0"/><feBlend in2="BackgroundImageFix" result="effect1_dropShadow_202_3"/><feBlend in="SourceGraphic" in2="effect1_dropShadow_202_3" result="shape"/></filter></defs></svg>